<?xml version="1.0" encoding="iso-8859-1"?>
<!-- Generator: Adobe Illustrator 19.0.0, SVG Export Plug-In . SVG Version: 6.00 Build 0)  -->
<svg version="1.1" id="Layer_1" xmlns="http://www.w3.org/2000/svg" xmlns:xlink="http://www.w3.org/1999/xlink" x="0px" y="0px"
	 viewBox="0 0 511.973 511.973" style="enable-background:new 0 0 511.973 511.973;" xml:space="preserve">
<polygon style="fill:#9ED36A;" points="398.954,10 290.962,29.999 158.969,99.994 79.974,181.989 56.975,273.983 74.974,354.979 
	106.972,408.975 175.968,443.973 255.994,455.973 328.958,434.973 410.954,356.979 464.95,265.984 495.948,167.99 495.948,18.999 
	"/>
<path d="M503.276,8.703c0,0-33.154-8.703-83.994-8.703c-78.746,0-199.957,20.858-306.326,127.242
	C-10.911,251.11,65.209,374.602,89.52,407.366L3.119,493.767c-4.156,4.156-4.156,10.921,0,15.077c4.187,4.172,10.937,4.172,15.093,0
	l86.401-86.385c18.968,14.045,68.277,45.449,130.461,45.449c45.31,0,97.431-16.67,149.679-68.886
	C559.772,223.987,503.276,8.735,503.276,8.703z M488.276,137.617c-4.436,41.56-14.904,81.62-31.154,119.04
	c-20.279,46.7-49.715,89.525-87.463,127.289c-41.561,41.561-86.869,62.637-134.585,62.637c-16.03,0-32.467-2.391-48.81-7.094
	c-13.343-3.828-26.686-9.187-39.654-15.936c-11.343-5.922-20.468-11.891-26.717-16.375l180.301-180.317
	c4.188-4.171,4.188-10.921,0-15.093c-4.156-4.156-10.904-4.156-15.061,0l-180.364,180.35c-9.343-13.016-25.249-38.607-33.748-71.699
	c-7.156-27.951-7.468-55.543-0.938-82.011c8.281-33.576,27.78-65.902,57.965-96.088c45.278-45.278,97.557-78.386,155.428-98.432
	c43.184-14.968,88.9-22.561,135.805-22.561c29.373,0,52.559,3.094,65.932,5.437c1,5.688,2.156,13.156,3.125,22.108
	C490.495,68.809,492.214,100.401,488.276,137.617z"/>
<g>
</g>
<g>
</g>
<g>
</g>
<g>
</g>
<g>
</g>
<g>
</g>
<g>
</g>
<g>
</g>
<g>
</g>
<g>
</g>
<g>
</g>
<g>
</g>
<g>
</g>
<g>
</g>
<g>
</g>
</svg>
